<svg xmlns="http://www.w3.org/2000/svg" viewBox="0 0 24.33 25.83"><defs><style>.cls-1{fill:#fff;}</style></defs><title>Asset 1</title><g id="Layer_2" data-name="Layer 2"><g id="Layer_1-2" data-name="Layer 1"><path class="cls-1" d="M10.59,3.29V0h3.18V3.29A11.7,11.7,0,0,1,21.5,6.23a8.8,8.8,0,0,1,2.83,6.67,9,9,0,0,1-2.74,6.62q-2.74,2.73-7.82,3v3.3H10.59v-3.3A11.93,11.93,0,0,1,3,19.76,8.61,8.61,0,0,1,0,12.9,8.53,8.53,0,0,1,3,6.05,12.1,12.1,0,0,1,10.59,3.29Zm0,2.92A8,8,0,0,0,5.47,8.08a6.11,6.11,0,0,0-2,4.82,6.19,6.19,0,0,0,1.93,4.81,7.94,7.94,0,0,0,5.15,1.88Zm3.18,0V19.61A7.93,7.93,0,0,0,19,17.71a6.23,6.23,0,0,0,1.88-4.81A6.23,6.23,0,0,0,19,8.14,8,8,0,0,0,13.77,6.19Z"/></g></g></svg>